<svg width="24" height="24" viewBox="0 0 24 24" fill="none" xmlns="http://www.w3.org/2000/svg">
<g clip-path="url(#clip0_2877_809)">
<path d="M24 0H0V24H24V0Z" fill="white"/>
<path fill-rule="evenodd" clip-rule="evenodd" d="M12 4C10.067 4 8.5 5.567 8.5 7.5C8.5 9.433 10.067 11 12 11C13.933 11 15.5 9.433 15.5 7.5C15.5 5.567 13.933 4 12 4ZM7.5 7.5C7.5 5.01472 9.51472 3 12 3C14.4853 3 16.5 5.01472 16.5 7.5C16.5 9.98528 14.4853 12 12 12C9.51472 12 7.5 9.98528 7.5 7.5Z" fill="black"/>
<path fill-rule="evenodd" clip-rule="evenodd" d="M12 14.5C7.85786 14.5 4.5 17.8579 4.5 22H3.5C3.5 17.3056 7.30558 13.5 12 13.5C16.6944 13.5 20.5 17.3056 20.5 22H19.5C19.5 17.8579 16.1421 14.5 12 14.5Z" fill="black"/>
</g>
<defs>
<clipPath id="clip0_2877_809">
<rect width="24" height="24" fill="white"/>
</clipPath>
</defs>
</svg>
