<svg width="25" height="25" viewBox="0 0 25 25" fill="none" xmlns="http://www.w3.org/2000/svg">
<g clip-path="url(#clip0_2882_1275)">
<path d="M12.5 24.5C19.1274 24.5 24.5 19.1274 24.5 12.5C24.5 5.87258 19.1274 0.5 12.5 0.5C5.87258 0.5 0.5 5.87258 0.5 12.5C0.5 19.1274 5.87258 24.5 12.5 24.5Z" fill="white"/>
<path d="M18.2495 9.77248C18.1069 9.27468 17.7123 8.88421 17.2041 8.74614C16.2681 8.50001 12.5057 8.50001 12.5057 8.50001C12.5057 8.50001 8.75047 8.49414 7.8048 8.74614C7.29913 8.88454 6.90264 9.27468 6.76159 9.77248C6.58417 10.7161 6.49601 11.6712 6.50014 12.6307C6.49826 13.584 6.58604 14.5376 6.76159 15.4753C6.90264 15.9731 7.29913 16.3636 7.8048 16.5039C8.74073 16.75 12.5057 16.75 12.5057 16.75C12.5057 16.75 16.2587 16.75 17.2041 16.5039C17.7123 16.3636 18.1069 15.9735 18.2495 15.4753C18.4217 14.5376 18.5057 13.584 18.4997 12.6307C18.5057 11.6712 18.4235 10.7161 18.2495 9.77248ZM11.3039 14.3973V10.8563L14.4357 12.6307L11.3039 14.3973Z" fill="#757575"/>
</g>
<defs>
<clipPath id="clip0_2882_1275">
<rect width="24" height="24" fill="white" transform="translate(0.5 0.5)"/>
</clipPath>
</defs>
</svg>
