<svg width="25" height="25" viewBox="0 0 25 25" fill="none" xmlns="http://www.w3.org/2000/svg">
<g clip-path="url(#clip0_2882_1282)">
<path d="M12.5 24.5C19.1274 24.5 24.5 19.1274 24.5 12.5C24.5 5.87258 19.1274 0.5 12.5 0.5C5.87258 0.5 0.5 5.87258 0.5 12.5C0.5 19.1274 5.87258 24.5 12.5 24.5Z" fill="white"/>
<path d="M13.3876 11.7853L16.8621 7.83325H16.0388L13.0219 11.2647L10.6122 7.83325H7.83301L11.4768 13.0223L7.83301 17.1666H8.65641L11.8424 13.5428L14.3871 17.1666H17.1663L13.3876 11.7853ZM12.2599 13.068L11.8907 12.5513L8.95307 8.43978H10.2178L12.5884 11.7579L12.9576 12.2746L16.0392 16.5877H14.7745L12.2599 13.068Z" fill="#757575"/>
</g>
<defs>
<clipPath id="clip0_2882_1282">
<rect width="24" height="24" fill="white" transform="translate(0.5 0.5)"/>
</clipPath>
</defs>
</svg>
