<svg width="12" height="12" viewBox="0 0 12 12" fill="none" xmlns="http://www.w3.org/2000/svg">
<path d="M10.9687 6.97099H6.77665V11.1631C6.77665 11.3854 6.68832 11.5987 6.53109 11.7559C6.37385 11.9131 6.1606 12.0015 5.93824 12.0015C5.71588 12.0015 5.50262 11.9131 5.34539 11.7559C5.18816 11.5987 5.09982 11.3854 5.09982 11.1631V6.97099H0.907751C0.685389 6.97099 0.472135 6.88266 0.314902 6.72542C0.157669 6.56819 0.0693359 6.35494 0.0693359 6.13257C0.0693359 5.91021 0.157669 5.69696 0.314902 5.53973C0.472135 5.38249 0.685389 5.29416 0.907751 5.29416H5.09982V1.10209C5.09982 0.879725 5.18816 0.666471 5.34539 0.509238C5.50262 0.352004 5.71588 0.263672 5.93824 0.263672C6.1606 0.263672 6.37385 0.352004 6.53109 0.509238C6.68832 0.666471 6.77665 0.879725 6.77665 1.10209V5.29416H10.9687C11.1911 5.29416 11.4043 5.38249 11.5616 5.53973C11.7188 5.69696 11.8071 5.91021 11.8071 6.13257C11.8071 6.35494 11.7188 6.56819 11.5616 6.72542C11.4043 6.88266 11.1911 6.97099 10.9687 6.97099Z" fill="white"/>
</svg>
