<svg width="62" height="17" viewBox="0 0 62 17" fill="none" xmlns="http://www.w3.org/2000/svg">
<g clip-path="url(#clip0_2882_1269)">
<path d="M0.5 0.863281V16.1361H12.1737V12.2225H5.29164V0.863281H0.5Z" fill="#666666"/>
<path d="M28.2271 10.2321C28.2271 14.4681 25.8971 16.4993 21.1493 16.4993C16.4023 16.4993 14.0488 14.4681 14.0488 10.2321V0.863281H18.8404V9.18408C18.8404 10.7457 18.8404 12.6913 21.1704 12.6913C23.4355 12.6913 23.4355 10.7449 23.4355 9.18408V0.863281H28.2263L28.2271 10.2321Z" fill="#666666"/>
<path d="M35.4938 11.0032C35.4938 11.388 35.5596 11.7296 35.6684 12.008C36.0168 12.928 37.0628 13.12 37.9554 13.12C38.7391 13.12 39.9378 12.864 39.9378 11.7296C39.9378 10.9384 39.2621 10.7248 36.582 9.976C34.1213 9.2912 31.3112 8.6288 31.3112 5.548C31.3112 2.0184 34.382 0.5 37.5842 0.5C40.9587 0.5 43.9433 1.7624 44.0757 5.484H39.5439C39.6308 4.9064 39.3669 4.5208 38.9779 4.2656C38.5872 3.9872 38.0423 3.88 37.5631 3.88C36.9085 3.88 35.8414 4.0504 35.8414 4.9064C35.9283 5.9984 38.1511 6.2328 40.3504 6.832C42.5505 7.4304 44.7295 8.436 44.7295 11.2384C44.7295 15.2168 41.0033 16.5 37.5412 16.5C35.7772 16.5 30.7468 15.8792 30.7021 11.0032H35.4938Z" fill="#666666"/>
<path d="M56.7091 0.863281V6.16808H52.2204V0.863281H47.4287V16.1361H52.2204V10.0825H56.7091V16.1361H61.4999V0.863281H56.7091Z" fill="#666666"/>
</g>
<defs>
<clipPath id="clip0_2882_1269">
<rect width="61" height="16" fill="white" transform="translate(0.5 0.5)"/>
</clipPath>
</defs>
</svg>
