<svg width="25" height="25" viewBox="0 0 25 25" fill="none" xmlns="http://www.w3.org/2000/svg">
<g clip-path="url(#clip0_2882_1278)">
<path d="M12.5 24.5C19.1274 24.5 24.5 19.1274 24.5 12.5C24.5 5.87258 19.1274 0.5 12.5 0.5C5.87258 0.5 0.5 5.87258 0.5 12.5C0.5 19.1274 5.87258 24.5 12.5 24.5Z" fill="white"/>
<path d="M6.5 11.8309C6.5 8.8874 9.18607 6.5 12.5 6.5C15.8139 6.5 18.5 8.8874 18.5 11.8325C18.5 14.7759 15.8139 17.1633 12.5 17.1633C12.0972 17.1633 11.7025 17.1273 11.3209 17.0599L11.2719 17.0396L9.07633 18.4707C8.97687 18.5427 8.83333 18.4738 8.83333 18.3532L8.75387 15.9931L8.74733 15.99C7.44753 15.0439 6.5 14.0052 6.5 11.8309Z" fill="#757575"/>
<path d="M11.0523 12.8801C11.5434 12.8801 11.9623 12.619 12.0889 12.2165H12.8139C12.6371 12.9925 11.9569 13.5001 11.0523 13.5001C10.0009 13.5001 9.16699 12.8027 9.16699 11.8334C9.16699 10.8629 10.0009 10.1667 11.0523 10.1667C11.9664 10.1667 12.6507 10.6852 12.8193 11.4745H12.0957C11.9855 11.0454 11.5515 10.7783 11.0523 10.7783C10.345 10.7783 9.87433 11.2267 9.87433 11.8334C9.87433 12.4413 10.4089 12.8801 11.0523 12.8801ZM15.8337 13.4372H15.1685V12.1041C15.1685 11.7971 14.9672 11.6328 14.6584 11.6328C14.3129 11.6328 14.0911 11.8201 14.0911 12.2008V13.4372H13.426V10.1764H14.0911V11.4031C14.2503 11.188 14.5087 11.0829 14.8583 11.0829C15.1427 11.0829 15.3739 11.1651 15.5548 11.3343C15.7412 11.5035 15.8337 11.7331 15.8337 12.0304V13.4372Z" fill="white"/>
</g>
<defs>
<clipPath id="clip0_2882_1278">
<rect width="24" height="24" fill="white" transform="translate(0.5 0.5)"/>
</clipPath>
</defs>
</svg>
