<svg width="24" height="24" viewBox="0 0 24 24" fill="none" xmlns="http://www.w3.org/2000/svg">
<path fill-rule="evenodd" clip-rule="evenodd" d="M3.5 10C3.5 6.41015 6.41015 3.5 10 3.5C13.5899 3.5 16.5 6.41015 16.5 10C16.5 13.5899 13.5899 16.5 10 16.5C6.41015 16.5 3.5 13.5899 3.5 10ZM10 2.5C5.85786 2.5 2.5 5.85786 2.5 10C2.5 14.1421 5.85786 17.5 10 17.5C11.8911 17.5 13.6188 16.8001 14.938 15.6451L15.4277 16.1348L20.6465 21.3536L21.3536 20.6464L16.1185 15.4114L15.6451 14.938C16.8001 13.6188 17.5 11.8911 17.5 10C17.5 5.85786 14.1421 2.5 10 2.5Z" fill="black"/>
</svg>
