<svg width="24" height="24" viewBox="0 0 24 24" fill="none" xmlns="http://www.w3.org/2000/svg">
<g clip-path="url(#clip0_2877_815)">
<path d="M24 0H0V24H24V0Z" fill="white"/>
<path fill-rule="evenodd" clip-rule="evenodd" d="M20 8H4V20C4 20.5523 4.44772 21 5 21H19C19.5523 21 20 20.5523 20 20V8ZM3 7V20C3 21.1046 3.89543 22 5 22H19C20.1046 22 21 21.1046 21 20V7H3Z" fill="black"/>
<path fill-rule="evenodd" clip-rule="evenodd" d="M12 4C9.79086 4 8 5.79086 8 8V11H7V8C7 5.23858 9.23858 3 12 3C14.7614 3 17 5.23858 17 8V11H16V8C16 5.79086 14.2091 4 12 4Z" fill="black"/>
</g>
<defs>
<clipPath id="clip0_2877_815">
<rect width="24" height="24" fill="white"/>
</clipPath>
</defs>
</svg>
